<?xml version="1.0" encoding="utf-8"?>
<!-- Generator: Adobe Illustrator 26.0.3, SVG Export Plug-In . SVG Version: 6.00 Build 0)  -->
<svg version="1.1" id="Layer_1" xmlns="http://www.w3.org/2000/svg" xmlns:xlink="http://www.w3.org/1999/xlink" x="0px" y="0px"
	 viewBox="0 0 234 69" style="enable-background:new 0 0 234 69;" xml:space="preserve">
<style type="text/css">
	.st0{fill:#463F3A;}
</style>
<g>
	<path class="st0" d="M5.9,9.7C6.8,9.8,9.7,10,11.7,10c1.4,0,4.2-0.2,5.6-0.3v0.8l-2,0.2c-1.4,0.1-1.6,0.6-1.7,1.9
		c-0.1,1.4-0.3,9.5-0.3,30.6c0,2.3-0.1,4.6-0.2,6.1c-0.4,3.9-1.7,7.3-3.5,9.7c-1.9,2.3-4.6,3.7-6.6,3.7c-1.5,0-2.6-1.1-2.6-1.8
		c0-0.8,1.3-2,1.9-2c0.4,0,0.7,0.2,0.8,0.3c0.7,1,1.7,1.5,2.5,1.5c2.1,0,3.7-1.9,4.1-7.7c0.2-3.1,0.4-7.9,0.4-16.2V23
		c0-5.6-0.1-8.6-0.1-10.4c0-1.1-0.6-1.5-1.3-1.7c-1.1-0.2-2.3-0.3-2.9-0.3L5.9,9.7z"/>
	<path class="st0" d="M28.9,23.2c7.3,0,9.2,8.4,9.2,14.8c0,9-2.7,15.9-9.8,15.9c-7.6,0-9.7-8.3-9.7-15.3
		C18.6,31.7,21,23.2,28.9,23.2L28.9,23.2z M28.2,24.1c-2,0-3.4,1.2-4.4,3.6s-1.6,6.1-1.6,10.5c0,4,0.6,8.6,1.7,10.8
		c1.1,2.6,2.8,3.9,4.8,3.9c1.9,0,3.4-1,4.6-4.2c0.7-1.9,1.3-5.5,1.3-10.3c0-4.6-0.6-8.1-1.6-10.4C32,25.8,30.7,24.1,28.2,24.1
		L28.2,24.1z"/>
	<path class="st0" d="M43.9,35.1c0-5.5-0.3-8.1-0.5-9.2c-0.1-0.6-0.5-0.8-1.1-0.8h-1.8l0.2-0.6c1.2-0.2,4.7-0.6,5.6-1l0.2,0.1
		c0.2,1.9,0.3,5,0.3,5.7H47c1.1-3,2.9-6.1,5.7-6.1c1.3,0,2.6,0.7,2.6,2.6c0,1.7-1.2,2.2-1.7,2.2c-0.5,0-1.2-0.1-1.3-0.7
		c-0.2-1.3-0.4-1.8-1.4-1.8c-1.4,0-2.6,2.6-3.3,5c-0.4,1.4-0.6,2.4-0.6,4.1c0,11.5,0,14.3,0.1,16.1c0.1,1.2,0.3,1.5,3.7,1.7
		l-0.1,0.8c-0.9,0-3.8-0.2-5.8-0.2c-1.9,0-3.3,0.2-4.2,0.2l0.1-0.8c2.3-0.1,2.6-0.6,2.8-1.7c0.2-1.6,0.3-4.3,0.3-8.2V35.1z"/>
	<path class="st0" d="M67.6,6.8c1.9-0.1,5.5-0.6,7-0.8c-0.1,3.1-0.4,8.1-0.4,16.3v19c0,6.6,0.1,8.6,0.3,9.8c0.1,0.9,0.5,1.2,1.3,1.2
		l2.3-0.1L77.7,53c-1.4,0-5.5,0.6-6.7,1c0-1,0.1-3.2,0.1-4.1l-0.1-0.1c-1.9,2.4-4.1,4.1-6.6,4.1c-3,0-5-1.9-6.2-4
		c-1.6-2.8-2.2-6.6-2.2-10.6c0-8.2,3.2-16.1,10.5-16.1c1.8,0,3.7,0.6,4.8,1.7c0-9.2-0.1-13.7-0.3-16.4c-0.1-1-0.8-1.1-3.7-0.9
		L67.6,6.8z M59.3,38.6c0,4,1,8.4,2.1,10.3c1.2,2.1,3,3.2,4.4,3.2c1.8,0,3.6-1.1,4.7-3.4c0.5-1,0.8-2.1,0.8-13.5c0-6.9,0-7-0.5-7.9
		C70.1,26,69.1,24,66.5,24C61.5,24,59.3,30.9,59.3,38.6L59.3,38.6z"/>
	<path class="st0" d="M88.4,53.2c-1,0-2.9-0.2-5.2-0.2c-2.1,0-3.5,0.2-4.6,0.2l0.1-0.8c2.6-0.1,3.2-0.5,3.2-1.7
		c0.1-1.3,0.3-3.7,0.3-9.7v-7.5c0-4.2-0.2-6.8-0.2-7.9c0-1-0.5-1.1-3.5-0.9v-0.7c2.3-0.3,4.8-0.4,7-1c0,1.2-0.3,5.1-0.3,10.8v7.2
		c0,5.6,0.2,8.1,0.3,9.7c0.1,1.4,0.8,1.5,3,1.6L88.4,53.2z M83.1,11.3c1.3,0,1.9,0.8,1.9,2.3c0,1.2-1,2-2.2,2
		c-0.9,0-1.8-0.8-1.8-2.1C81,12.3,81.8,11.3,83.1,11.3L83.1,11.3z"/>
	<path class="st0" d="M99.6,53.8c-3.6,0-5.7-1.7-7.1-4.6c-1.1-2.1-1.8-6.3-1.8-9.6c0-7.1,1.9-16.4,9.5-16.4c5.9,0,7.2,6.9,7.1,10.4
		c0,1-0.2,2.6-0.7,2.8c-1,0.5-4.9,0.6-8.3,0.6c-1.5,0-2.7,0-4.1,0c-0.3,6.1,0.9,10.7,2.1,12.6c1.2,1.9,2.6,2.8,4.3,2.8
		c3,0,4.6-1.8,5.8-5.8l0.7,0.3C106.4,50.8,104.1,53.8,99.6,53.8z M99.7,24c-3.9,0-5.2,7.9-5.3,12c1.2,0,2.5,0,3.7,0
		c1.8,0,3.6-0.1,4.6-0.3c0.9-0.1,1.4-0.8,1.4-2.9C104.1,30.7,104.3,24,99.7,24L99.7,24z"/>
	<path class="st0" d="M119.2,42c-0.7,7.3,2.6,10.6,7.5,10.6c3.7,0,6.7-2.3,6.7-8.9c0-3.3-1-6.1-3.6-8.3c-1.7-1.5-4.5-3.8-6.5-5.7
		c-3.3-3.2-4.3-6.4-4.3-10.1c0-5.2,3-10.3,9.3-10.3c3,0,4.7,1,5.8,2.2l0.8-2.6l0.7,0.2c-0.5,3.5-1,8.8-1,10.3l-0.8-0.1
		c0.4-6.6-2.6-9.1-5.7-9.1c-3.5,0-6.1,3-6.1,8.6c0,2.4,0.7,5.5,3.9,8.3c3.1,2.8,5.4,4.6,7,6.1c2.4,2.2,3.7,5.3,3.7,8.6
		c0,6.8-3.9,12-10.6,12c-3.3,0-5.9-1.2-7.9-2.6c0.4-4.2,0.3-7.5,0.4-8.8L119.2,42z"/>
	<path class="st0" d="M152.4,24l-0.3,0.9l-6.8,0.4c-0.1,2.2-0.2,6.3-0.2,11.8c0,9.5,0.1,11.6,0.3,13c0.3,1.4,1.3,2.3,2.8,2.3
		c2,0,3.7-1.8,4.3-5.5h0.3l0.4,1.3c-1.1,3.4-3.4,5.6-6.4,5.6c-1.9,0-3.2-0.6-3.9-1.4c-0.7-0.8-1-1.9-1-3.9c0-6.8,0.3-17.4,0.3-23.2
		l-3.9-0.4l0.2-0.9h3.8c0-2.1,0-4.4,0-6.2c1.2-1,2.4-2.1,3.1-2.7l0.3,0.1c0,1.3-0.3,5.6-0.3,8.8H152.4z"/>
	<path class="st0" d="M165.7,23.9c1.1,0,2.8-0.1,3.9-0.1c1.2-0.1,2.1-0.2,2.7-0.3c-0.2,2.3-0.3,5.9-0.3,9.7v9c0,6.6,0.1,8.3,0.2,9.2
		c0.1,0.8,0.6,0.8,3.1,0.7v0.7c-0.6,0.1-1.9,0.2-3.1,0.3c-1.2,0.1-2.3,0.3-3.4,0.6c0.1-1.4,0-3.8,0.1-5.7c-1.8,2.7-4.8,5.7-8.8,5.7
		c-2.4,0-3.8-0.9-4.3-2.2c-0.3-0.7-0.5-1.6-0.5-3c0-3.9,0.2-11.2,0.2-16.8c0-3.7-0.1-5.2-0.1-6.1c-0.1-1-0.6-1.1-3.2-1.1l0.2-0.6
		c1,0,2.7-0.1,4-0.2c1.2-0.1,2.1-0.3,2.6-0.4c-0.1,1.6-0.3,7.1-0.3,14.8c-0.1,8.1,0,10.3,0.1,11.6c0.2,1.6,1,2.6,2.6,2.6
		c3.2,0,5.7-2.1,7-5.3c0.7-1.7,0.7-2.8,0.7-4v-8.8c0-4.8-0.1-7-0.2-8.4c-0.1-1-0.6-1.2-3-1.2L165.7,23.9z"/>
	<path class="st0" d="M189,6.8c1.9-0.1,5.5-0.6,7-0.8c-0.1,3.1-0.4,8.1-0.4,16.3v19c0,6.6,0.1,8.6,0.3,9.8c0.1,0.9,0.5,1.2,1.3,1.2
		l2.3-0.1l-0.4,0.8c-1.4,0-5.5,0.6-6.7,1c0-1,0.1-3.2,0.1-4.1l-0.1-0.1c-1.9,2.4-4.1,4.1-6.6,4.1c-3,0-5-1.9-6.2-4
		c-1.6-2.8-2.2-6.6-2.2-10.6c0-8.2,3.2-16.1,10.5-16.1c1.8,0,3.7,0.6,4.8,1.7c0-9.2-0.1-13.7-0.3-16.4c-0.1-1-0.8-1.1-3.7-0.9
		L189,6.8z M180.6,38.6c0,4,1,8.4,2.1,10.3c1.2,2.1,3,3.2,4.4,3.2c1.8,0,3.6-1.1,4.7-3.4c0.5-1,0.8-2.1,0.8-13.5c0-6.9,0-7-0.5-7.9
		c-0.6-1.2-1.6-3.2-4.3-3.2C182.9,24,180.6,30.9,180.6,38.6L180.6,38.6z"/>
	<path class="st0" d="M209.8,53.2c-1,0-2.9-0.2-5.2-0.2c-2.1,0-3.5,0.2-4.6,0.2l0.1-0.8c2.6-0.1,3.2-0.5,3.2-1.7
		c0.1-1.3,0.3-3.7,0.3-9.7v-7.5c0-4.2-0.2-6.8-0.2-7.9c0-1-0.5-1.1-3.5-0.9v-0.7c2.3-0.3,4.8-0.4,7-1c0,1.2-0.3,5.1-0.3,10.8v7.2
		c0,5.6,0.2,8.1,0.3,9.7c0.1,1.4,0.8,1.5,3,1.6L209.8,53.2z M204.5,11.3c1.3,0,1.9,0.8,1.9,2.3c0,1.2-1,2-2.2,2
		c-0.9,0-1.8-0.8-1.8-2.1C202.4,12.3,203.2,11.3,204.5,11.3L204.5,11.3z"/>
	<path class="st0" d="M222,23.2c7.3,0,9.2,8.4,9.2,14.8c0,9-2.7,15.9-9.8,15.9c-7.6,0-9.7-8.3-9.7-15.3
		C211.8,31.7,214.2,23.2,222,23.2L222,23.2z M221.4,24.1c-2,0-3.4,1.2-4.4,3.6s-1.6,6.1-1.6,10.5c0,4,0.6,8.6,1.7,10.8
		c1.1,2.6,2.8,3.9,4.8,3.9c1.9,0,3.5-1,4.6-4.2c0.7-1.9,1.3-5.5,1.3-10.3c0-4.6-0.6-8.1-1.6-10.4C225.2,25.8,223.9,24.1,221.4,24.1
		L221.4,24.1z"/>
</g>
</svg>
